<?xml version="1.0" standalone="no"?>
<!DOCTYPE svg PUBLIC "-//W3C//DTD SVG 20010904//EN"
 "http://www.w3.org/TR/2001/REC-SVG-20010904/DTD/svg10.dtd">
<svg version="1.0" xmlns="http://www.w3.org/2000/svg"
 width="512.000000pt" height="512.000000pt" viewBox="0 0 512.000000 512.000000"
 preserveAspectRatio="xMidYMid meet">
<metadata>
Created by potrace 1.11, written by Peter Selinger 2001-2013
</metadata>
<g transform="translate(0.000000,512.000000) scale(0.100000,-0.100000)"
fill="#000000" stroke="none">
<path d="M142 5107 c-12 -7 -30 -24 -39 -37 -16 -22 -17 -187 -17 -2389 -1
-1302 2 -2385 5 -2409 4 -28 16 -53 33 -70 l26 -27 1793 -2 c1139 -1 1806 2
1830 8 65 17 93 89 57 147 -11 18 -32 37 -46 42 -14 6 -94 10 -178 10 l-152 0
0 685 c0 612 2 685 15 686 9 1 76 1 150 1 147 0 184 8 207 44 36 55 15 133
-42 154 -14 6 -94 10 -178 10 l-152 0 0 685 0 685 30 1 c35 0 1263 0 1312 -1
l31 0 0 -148 c0 -127 2 -152 18 -176 49 -74 161 -54 182 34 5 19 8 478 8 1020
-1 924 -2 987 -19 1012 -9 14 -31 31 -48 37 -48 17 -4795 15 -4826 -2z m1484
-196 l40 -1 0 -685 0 -685 -685 2 -686 3 -1 680 0 680 25 5 c19 4 1090 4 1307
1z m1600 0 l21 -1 -1 -685 0 -685 -686 0 -686 0 -1 685 0 684 41 3 c32 2 1223
1 1312 -1z m1560 0 l41 -1 -1 -682 -1 -683 -686 -3 -685 -2 0 682 -1 683 26 5
c19 4 1074 4 1307 1z m-3145 -1580 l25 -1 0 -682 -1 -683 -685 -3 -686 -2 0
685 c0 597 2 685 15 687 11 2 1219 1 1332 -1z m1590 0 c14 -1 16 -69 16 -686
l0 -685 -687 0 -686 0 0 685 0 684 45 3 c37 2 1255 1 1312 -1z m-1610 -1580
l45 -1 0 -682 -1 -683 -686 -3 -685 -2 0 682 0 683 111 5 c87 4 1009 5 1216 1z
m1515 0 l110 -1 0 -685 1 -685 -686 2 -686 3 -1 680 c-1 660 0 680 18 685 16
4 666 4 1244 1z"/>
<path d="M994 4727 c-23 -13 -66 -51 -242 -216 -126 -118 -142 -147 -118 -206
11 -24 26 -40 50 -50 59 -25 81 -15 181 78 l60 56 5 -304 5 -305 31 -30 c52
-52 128 -40 159 25 22 49 23 861 0 905 -24 47 -90 70 -131 47z"/>
<path d="M2169 3122 c-88 -23 -114 -115 -49 -174 l30 -28 300 0 c302 0 341 -4
366 -38 17 -21 17 -72 1 -93 -26 -34 -54 -39 -239 -39 -163 0 -186 -2 -214
-19 -44 -27 -61 -79 -40 -123 28 -59 42 -62 246 -65 102 -1 191 -2 198 -2 7
-1 24 -12 37 -26 32 -31 32 -75 1 -112 l-24 -28 -299 -1 c-369 -2 -336 1 -365
-29 -52 -52 -39 -140 24 -166 34 -14 592 -18 663 -5 183 35 285 245 200 412
l-31 59 30 58 c31 61 39 131 23 208 -10 51 -62 125 -111 158 -76 52 -97 55
-427 56 -168 1 -312 0 -320 -3z"/>
<path d="M4549 2852 c-15 -9 -57 -53 -94 -97 -70 -83 -140 -164 -194 -225 -17
-19 -43 -53 -59 -74 l-27 -39 -1 -1161 c0 -666 3 -1172 8 -1188 5 -14 18 -34
30 -45 19 -17 46 -18 380 -20 397 -3 403 -2 429 59 11 26 13 238 14 1168 0
624 -2 1149 -4 1167 -3 29 -45 87 -154 213 -12 14 -49 57 -81 95 -121 142
-147 165 -186 165 -19 0 -47 -8 -61 -18z m167 -372 c48 -58 92 -108 96 -111 5
-3 10 -15 13 -27 4 -21 2 -21 -221 -20 -178 0 -224 3 -224 13 0 8 50 72 112
145 88 102 114 128 123 118 7 -7 52 -60 101 -118z m110 -1102 c0 -518 -3 -738
-10 -741 -6 -2 -105 -3 -221 -3 l-210 1 -3 740 -2 740 222 0 223 0 1 -737z
m-10 -957 c13 -1 15 -194 3 -206 -5 -5 -342 -10 -421 -6 -16 1 -18 13 -18 109
l0 107 213 -1 c116 -1 217 -2 223 -3z"/>
</g>
</svg>
